<mxfile host="65bd71144e">
    <diagram id="C5RBs43oDa-KdzZeNtuy" name="Page-1">
        <mxGraphModel dx="1907" dy="1171" grid="1" gridSize="10" guides="1" tooltips="1" connect="1" arrows="1" fold="1" page="1" pageScale="1" pageWidth="827" pageHeight="1169" background="#F4F1DE" math="0" shadow="0">
            <root>
                <mxCell id="WIyWlLk6GJQsqaUBKTNV-0"/>
                <mxCell id="WIyWlLk6GJQsqaUBKTNV-1" parent="WIyWlLk6GJQsqaUBKTNV-0"/>
                <mxCell id="hiwe-CxgwqvSEQismmMj-13" value="MqttClient" style="swimlane;fontStyle=0;childLayout=stackLayout;horizontal=1;startSize=26;fillColor=none;horizontalStack=0;resizeParent=1;resizeParentMax=0;resizeLast=0;collapsible=1;marginBottom=0;swimlaneLine=1;glass=0;shadow=0;strokeColor=#E07A5F;fontColor=#393C56;" parent="WIyWlLk6GJQsqaUBKTNV-1" vertex="1">
                    <mxGeometry x="20" y="20" width="270" height="520" as="geometry"/>
                </mxCell>
                <mxCell id="hiwe-CxgwqvSEQismmMj-71" value="+ _log: Logging.Logger" style="text;strokeColor=none;fillColor=none;align=left;verticalAlign=top;spacingLeft=4;spacingRight=4;overflow=hidden;rotatable=0;points=[[0,0.5],[1,0.5]];portConstraint=eastwest;fontColor=#393C56;" parent="hiwe-CxgwqvSEQismmMj-13" vertex="1">
                    <mxGeometry y="26" width="270" height="26" as="geometry"/>
                </mxCell>
                <mxCell id="hiwe-CxgwqvSEQismmMj-93" value="+ _config: MqttConfig" style="text;strokeColor=none;fillColor=none;align=left;verticalAlign=top;spacingLeft=4;spacingRight=4;overflow=hidden;rotatable=0;points=[[0,0.5],[1,0.5]];portConstraint=eastwest;fontColor=#393C56;" parent="hiwe-CxgwqvSEQismmMj-13" vertex="1">
                    <mxGeometry y="52" width="270" height="26" as="geometry"/>
                </mxCell>
                <mxCell id="hiwe-CxgwqvSEQismmMj-33" value="+ _userdata: MqttUserdata" style="text;strokeColor=none;fillColor=none;align=left;verticalAlign=top;spacingLeft=4;spacingRight=4;overflow=hidden;rotatable=0;points=[[0,0.5],[1,0.5]];portConstraint=eastwest;fontColor=#393C56;" parent="hiwe-CxgwqvSEQismmMj-13" vertex="1">
                    <mxGeometry y="78" width="270" height="26" as="geometry"/>
                </mxCell>
                <mxCell id="hiwe-CxgwqvSEQismmMj-14" value="+ _client: PahoClient" style="text;strokeColor=none;align=left;verticalAlign=top;spacingLeft=4;spacingRight=4;overflow=hidden;rotatable=0;points=[[0,0.5],[1,0.5]];portConstraint=eastwest;fontColor=#393C56;" parent="hiwe-CxgwqvSEQismmMj-13" vertex="1">
                    <mxGeometry y="104" width="270" height="26" as="geometry"/>
                </mxCell>
                <mxCell id="hiwe-CxgwqvSEQismmMj-25" value="userdata(): MqttUserdata" style="text;strokeColor=none;fillColor=none;align=left;verticalAlign=top;spacingLeft=4;spacingRight=4;overflow=hidden;rotatable=0;points=[[0,0.5],[1,0.5]];portConstraint=eastwest;fontColor=#393C56;" parent="hiwe-CxgwqvSEQismmMj-13" vertex="1">
                    <mxGeometry y="130" width="270" height="26" as="geometry"/>
                </mxCell>
                <mxCell id="hiwe-CxgwqvSEQismmMj-69" value="save_sent_messages(bool): bool" style="text;strokeColor=none;fillColor=none;align=left;verticalAlign=top;spacingLeft=4;spacingRight=4;overflow=hidden;rotatable=0;points=[[0,0.5],[1,0.5]];portConstraint=eastwest;fontColor=#393C56;" parent="hiwe-CxgwqvSEQismmMj-13" vertex="1">
                    <mxGeometry y="156" width="270" height="26" as="geometry"/>
                </mxCell>
                <mxCell id="hiwe-CxgwqvSEQismmMj-27" value="subscribe(string): MqttSubscription" style="text;strokeColor=none;fillColor=none;align=left;verticalAlign=top;spacingLeft=4;spacingRight=4;overflow=hidden;rotatable=0;points=[[0,0.5],[1,0.5]];portConstraint=eastwest;fontColor=#393C56;" parent="hiwe-CxgwqvSEQismmMj-13" vertex="1">
                    <mxGeometry y="182" width="270" height="26" as="geometry"/>
                </mxCell>
                <mxCell id="hiwe-CxgwqvSEQismmMj-26" value="unsubscribe(string): MqttSubscription" style="text;strokeColor=none;fillColor=none;align=left;verticalAlign=top;spacingLeft=4;spacingRight=4;overflow=hidden;rotatable=0;points=[[0,0.5],[1,0.5]];portConstraint=eastwest;fontColor=#393C56;" parent="hiwe-CxgwqvSEQismmMj-13" vertex="1">
                    <mxGeometry y="208" width="270" height="26" as="geometry"/>
                </mxCell>
                <mxCell id="hiwe-CxgwqvSEQismmMj-28" value="start(): rc, message" style="text;strokeColor=none;fillColor=none;align=left;verticalAlign=top;spacingLeft=4;spacingRight=4;overflow=hidden;rotatable=0;points=[[0,0.5],[1,0.5]];portConstraint=eastwest;fontColor=#393C56;" parent="hiwe-CxgwqvSEQismmMj-13" vertex="1">
                    <mxGeometry y="234" width="270" height="26" as="geometry"/>
                </mxCell>
                <mxCell id="hiwe-CxgwqvSEQismmMj-29" value="stop(): rc, message" style="text;strokeColor=none;fillColor=none;align=left;verticalAlign=top;spacingLeft=4;spacingRight=4;overflow=hidden;rotatable=0;points=[[0,0.5],[1,0.5]];portConstraint=eastwest;fontColor=#393C56;" parent="hiwe-CxgwqvSEQismmMj-13" vertex="1">
                    <mxGeometry y="260" width="270" height="26" as="geometry"/>
                </mxCell>
                <mxCell id="hiwe-CxgwqvSEQismmMj-30" value="publish(string,byte): MqttPublish" style="text;strokeColor=none;fillColor=none;align=left;verticalAlign=top;spacingLeft=4;spacingRight=4;overflow=hidden;rotatable=0;points=[[0,0.5],[1,0.5]];portConstraint=eastwest;fontColor=#393C56;" parent="hiwe-CxgwqvSEQismmMj-13" vertex="1">
                    <mxGeometry y="286" width="270" height="26" as="geometry"/>
                </mxCell>
                <mxCell id="hiwe-CxgwqvSEQismmMj-70" value="sent_messages(int): list(MqttPublish)" style="text;strokeColor=none;fillColor=none;align=left;verticalAlign=top;spacingLeft=4;spacingRight=4;overflow=hidden;rotatable=0;points=[[0,0.5],[1,0.5]];portConstraint=eastwest;fontColor=#393C56;" parent="hiwe-CxgwqvSEQismmMj-13" vertex="1">
                    <mxGeometry y="312" width="270" height="26" as="geometry"/>
                </mxCell>
                <mxCell id="hiwe-CxgwqvSEQismmMj-31" value="received_messages(int,int): list(MqttMessage)" style="text;strokeColor=none;fillColor=none;align=left;verticalAlign=top;spacingLeft=4;spacingRight=4;overflow=hidden;rotatable=0;points=[[0,0.5],[1,0.5]];portConstraint=eastwest;fontColor=#393C56;" parent="hiwe-CxgwqvSEQismmMj-13" vertex="1">
                    <mxGeometry y="338" width="270" height="26" as="geometry"/>
                </mxCell>
                <mxCell id="hiwe-CxgwqvSEQismmMj-34" value="_on_connect()" style="text;strokeColor=none;fillColor=none;align=left;verticalAlign=top;spacingLeft=4;spacingRight=4;overflow=hidden;rotatable=0;points=[[0,0.5],[1,0.5]];portConstraint=eastwest;fontColor=#393C56;" parent="hiwe-CxgwqvSEQismmMj-13" vertex="1">
                    <mxGeometry y="364" width="270" height="26" as="geometry"/>
                </mxCell>
                <mxCell id="hiwe-CxgwqvSEQismmMj-35" value="_on_disconnect()" style="text;strokeColor=none;fillColor=none;align=left;verticalAlign=top;spacingLeft=4;spacingRight=4;overflow=hidden;rotatable=0;points=[[0,0.5],[1,0.5]];portConstraint=eastwest;fontColor=#393C56;" parent="hiwe-CxgwqvSEQismmMj-13" vertex="1">
                    <mxGeometry y="390" width="270" height="26" as="geometry"/>
                </mxCell>
                <mxCell id="hiwe-CxgwqvSEQismmMj-36" value="_on_subscribe()" style="text;strokeColor=none;fillColor=none;align=left;verticalAlign=top;spacingLeft=4;spacingRight=4;overflow=hidden;rotatable=0;points=[[0,0.5],[1,0.5]];portConstraint=eastwest;fontColor=#393C56;" parent="hiwe-CxgwqvSEQismmMj-13" vertex="1">
                    <mxGeometry y="416" width="270" height="26" as="geometry"/>
                </mxCell>
                <mxCell id="hiwe-CxgwqvSEQismmMj-37" value="_on_unsubscribe()" style="text;strokeColor=none;fillColor=none;align=left;verticalAlign=top;spacingLeft=4;spacingRight=4;overflow=hidden;rotatable=0;points=[[0,0.5],[1,0.5]];portConstraint=eastwest;fontColor=#393C56;" parent="hiwe-CxgwqvSEQismmMj-13" vertex="1">
                    <mxGeometry y="442" width="270" height="26" as="geometry"/>
                </mxCell>
                <mxCell id="hiwe-CxgwqvSEQismmMj-38" value="_on_publish()" style="text;strokeColor=none;fillColor=none;align=left;verticalAlign=top;spacingLeft=4;spacingRight=4;overflow=hidden;rotatable=0;points=[[0,0.5],[1,0.5]];portConstraint=eastwest;fontColor=#393C56;" parent="hiwe-CxgwqvSEQismmMj-13" vertex="1">
                    <mxGeometry y="468" width="270" height="26" as="geometry"/>
                </mxCell>
                <mxCell id="hiwe-CxgwqvSEQismmMj-39" value="_on_message()" style="text;strokeColor=none;fillColor=none;align=left;verticalAlign=top;spacingLeft=4;spacingRight=4;overflow=hidden;rotatable=0;points=[[0,0.5],[1,0.5]];portConstraint=eastwest;fontColor=#393C56;" parent="hiwe-CxgwqvSEQismmMj-13" vertex="1">
                    <mxGeometry y="494" width="270" height="26" as="geometry"/>
                </mxCell>
                <mxCell id="hiwe-CxgwqvSEQismmMj-40" value="MqttSubscription" style="swimlane;fontStyle=0;childLayout=stackLayout;horizontal=1;startSize=26;fillColor=none;horizontalStack=0;resizeParent=1;resizeParentMax=0;resizeLast=0;collapsible=1;marginBottom=0;shadow=0;glass=0;strokeColor=#E07A5F;fontColor=#393C56;" parent="WIyWlLk6GJQsqaUBKTNV-1" vertex="1">
                    <mxGeometry x="339" y="750" width="150" height="364" as="geometry"/>
                </mxCell>
                <mxCell id="hiwe-CxgwqvSEQismmMj-72" value="+ _log: Logging.Logger" style="text;strokeColor=none;fillColor=none;align=left;verticalAlign=top;spacingLeft=4;spacingRight=4;overflow=hidden;rotatable=0;points=[[0,0.5],[1,0.5]];portConstraint=eastwest;fontColor=#393C56;" parent="hiwe-CxgwqvSEQismmMj-40" vertex="1">
                    <mxGeometry y="26" width="150" height="26" as="geometry"/>
                </mxCell>
                <mxCell id="hiwe-CxgwqvSEQismmMj-96" value="+ mid: int" style="text;strokeColor=none;fillColor=none;align=left;verticalAlign=top;spacingLeft=4;spacingRight=4;overflow=hidden;rotatable=0;points=[[0,0.5],[1,0.5]];portConstraint=eastwest;fontColor=#393C56;" parent="hiwe-CxgwqvSEQismmMj-40" vertex="1">
                    <mxGeometry y="52" width="150" height="26" as="geometry"/>
                </mxCell>
                <mxCell id="hiwe-CxgwqvSEQismmMj-97" value="+ _result: int" style="text;strokeColor=none;fillColor=none;align=left;verticalAlign=top;spacingLeft=4;spacingRight=4;overflow=hidden;rotatable=0;points=[[0,0.5],[1,0.5]];portConstraint=eastwest;fontColor=#393C56;" parent="hiwe-CxgwqvSEQismmMj-40" vertex="1">
                    <mxGeometry y="78" width="150" height="26" as="geometry"/>
                </mxCell>
                <mxCell id="hiwe-CxgwqvSEQismmMj-41" value="+ topic: string" style="text;strokeColor=none;fillColor=none;align=left;verticalAlign=top;spacingLeft=4;spacingRight=4;overflow=hidden;rotatable=0;points=[[0,0.5],[1,0.5]];portConstraint=eastwest;fontColor=#393C56;" parent="hiwe-CxgwqvSEQismmMj-40" vertex="1">
                    <mxGeometry y="104" width="150" height="26" as="geometry"/>
                </mxCell>
                <mxCell id="hiwe-CxgwqvSEQismmMj-101" value="+ qos: int" style="text;strokeColor=none;fillColor=none;align=left;verticalAlign=top;spacingLeft=4;spacingRight=4;overflow=hidden;rotatable=0;points=[[0,0.5],[1,0.5]];portConstraint=eastwest;fontColor=#393C56;" parent="hiwe-CxgwqvSEQismmMj-40" vertex="1">
                    <mxGeometry y="130" width="150" height="26" as="geometry"/>
                </mxCell>
                <mxCell id="hiwe-CxgwqvSEQismmMj-102" value="+ granted_qos: int" style="text;strokeColor=none;fillColor=none;align=left;verticalAlign=top;spacingLeft=4;spacingRight=4;overflow=hidden;rotatable=0;points=[[0,0.5],[1,0.5]];portConstraint=eastwest;fontColor=#393C56;" parent="hiwe-CxgwqvSEQismmMj-40" vertex="1">
                    <mxGeometry y="156" width="150" height="26" as="geometry"/>
                </mxCell>
                <mxCell id="hiwe-CxgwqvSEQismmMj-42" value="+ is_subscribed: bool" style="text;strokeColor=none;fillColor=none;align=left;verticalAlign=top;spacingLeft=4;spacingRight=4;overflow=hidden;rotatable=0;points=[[0,0.5],[1,0.5]];portConstraint=eastwest;fontColor=#393C56;" parent="hiwe-CxgwqvSEQismmMj-40" vertex="1">
                    <mxGeometry y="182" width="150" height="26" as="geometry"/>
                </mxCell>
                <mxCell id="hiwe-CxgwqvSEQismmMj-43" value="+ message_count: int" style="text;strokeColor=none;fillColor=none;align=left;verticalAlign=top;spacingLeft=4;spacingRight=4;overflow=hidden;rotatable=0;points=[[0,0.5],[1,0.5]];portConstraint=eastwest;fontColor=#393C56;" parent="hiwe-CxgwqvSEQismmMj-40" vertex="1">
                    <mxGeometry y="208" width="150" height="26" as="geometry"/>
                </mxCell>
                <mxCell id="hiwe-CxgwqvSEQismmMj-104" value="subscribed(granted_qos)" style="text;strokeColor=none;fillColor=none;align=left;verticalAlign=top;spacingLeft=4;spacingRight=4;overflow=hidden;rotatable=0;points=[[0,0.5],[1,0.5]];portConstraint=eastwest;fontColor=#393C56;" parent="hiwe-CxgwqvSEQismmMj-40" vertex="1">
                    <mxGeometry y="234" width="150" height="26" as="geometry"/>
                </mxCell>
                <mxCell id="hiwe-CxgwqvSEQismmMj-103" value="unsubscribed()" style="text;strokeColor=none;fillColor=none;align=left;verticalAlign=top;spacingLeft=4;spacingRight=4;overflow=hidden;rotatable=0;points=[[0,0.5],[1,0.5]];portConstraint=eastwest;fontColor=#393C56;" parent="hiwe-CxgwqvSEQismmMj-40" vertex="1">
                    <mxGeometry y="260" width="150" height="26" as="geometry"/>
                </mxCell>
                <mxCell id="hiwe-CxgwqvSEQismmMj-99" value="result(int): int" style="text;strokeColor=none;fillColor=none;align=left;verticalAlign=top;spacingLeft=4;spacingRight=4;overflow=hidden;rotatable=0;points=[[0,0.5],[1,0.5]];portConstraint=eastwest;fontColor=#393C56;" parent="hiwe-CxgwqvSEQismmMj-40" vertex="1">
                    <mxGeometry y="286" width="150" height="26" as="geometry"/>
                </mxCell>
                <mxCell id="hiwe-CxgwqvSEQismmMj-83" value="message_callback()" style="text;strokeColor=none;fillColor=none;align=left;verticalAlign=top;spacingLeft=4;spacingRight=4;overflow=hidden;rotatable=0;points=[[0,0.5],[1,0.5]];portConstraint=eastwest;fontColor=#393C56;" parent="hiwe-CxgwqvSEQismmMj-40" vertex="1">
                    <mxGeometry y="312" width="150" height="26" as="geometry"/>
                </mxCell>
                <mxCell id="hiwe-CxgwqvSEQismmMj-57" value="wait_subscription(int)" style="text;strokeColor=none;fillColor=none;align=left;verticalAlign=top;spacingLeft=4;spacingRight=4;overflow=hidden;rotatable=0;points=[[0,0.5],[1,0.5]];portConstraint=eastwest;fontColor=#393C56;" parent="hiwe-CxgwqvSEQismmMj-40" vertex="1">
                    <mxGeometry y="338" width="150" height="26" as="geometry"/>
                </mxCell>
                <mxCell id="hiwe-CxgwqvSEQismmMj-44" value="MqttUserdata" style="swimlane;fontStyle=0;childLayout=stackLayout;horizontal=1;startSize=26;fillColor=none;horizontalStack=0;resizeParent=1;resizeParentMax=0;resizeLast=0;collapsible=1;marginBottom=0;shadow=0;glass=0;strokeColor=#E07A5F;fontColor=#393C56;" parent="WIyWlLk6GJQsqaUBKTNV-1" vertex="1">
                    <mxGeometry x="414" y="169" width="240" height="338" as="geometry"/>
                </mxCell>
                <mxCell id="hiwe-CxgwqvSEQismmMj-75" value="+ _log: Logging.Logger" style="text;strokeColor=none;fillColor=none;align=left;verticalAlign=top;spacingLeft=4;spacingRight=4;overflow=hidden;rotatable=0;points=[[0,0.5],[1,0.5]];portConstraint=eastwest;fontColor=#393C56;" parent="hiwe-CxgwqvSEQismmMj-44" vertex="1">
                    <mxGeometry y="26" width="240" height="26" as="geometry"/>
                </mxCell>
                <mxCell id="hiwe-CxgwqvSEQismmMj-45" value="+ _subscriptions: list(MqttSubscription)" style="text;strokeColor=none;fillColor=none;align=left;verticalAlign=top;spacingLeft=4;spacingRight=4;overflow=hidden;rotatable=0;points=[[0,0.5],[1,0.5]];portConstraint=eastwest;fontColor=#393C56;" parent="hiwe-CxgwqvSEQismmMj-44" vertex="1">
                    <mxGeometry y="52" width="240" height="26" as="geometry"/>
                </mxCell>
                <mxCell id="hiwe-CxgwqvSEQismmMj-46" value="+ _sent_messages: list(MqttPublish)" style="text;strokeColor=none;fillColor=none;align=left;verticalAlign=top;spacingLeft=4;spacingRight=4;overflow=hidden;rotatable=0;points=[[0,0.5],[1,0.5]];portConstraint=eastwest;fontColor=#393C56;" parent="hiwe-CxgwqvSEQismmMj-44" vertex="1">
                    <mxGeometry y="78" width="240" height="26" as="geometry"/>
                </mxCell>
                <mxCell id="hiwe-CxgwqvSEQismmMj-47" value="+ _received_messages: list(MqttMessage)" style="text;strokeColor=none;fillColor=none;align=left;verticalAlign=top;spacingLeft=4;spacingRight=4;overflow=hidden;rotatable=0;points=[[0,0.5],[1,0.5]];portConstraint=eastwest;fontColor=#393C56;" parent="hiwe-CxgwqvSEQismmMj-44" vertex="1">
                    <mxGeometry y="104" width="240" height="26" as="geometry"/>
                </mxCell>
                <mxCell id="hiwe-CxgwqvSEQismmMj-78" value="add_received_message(MqttMessage)" style="text;strokeColor=none;fillColor=none;align=left;verticalAlign=top;spacingLeft=4;spacingRight=4;overflow=hidden;rotatable=0;points=[[0,0.5],[1,0.5]];portConstraint=eastwest;fontColor=#393C56;" parent="hiwe-CxgwqvSEQismmMj-44" vertex="1">
                    <mxGeometry y="130" width="240" height="26" as="geometry"/>
                </mxCell>
                <mxCell id="hiwe-CxgwqvSEQismmMj-107" value="get_received_message()" style="text;strokeColor=none;fillColor=none;align=left;verticalAlign=top;spacingLeft=4;spacingRight=4;overflow=hidden;rotatable=0;points=[[0,0.5],[1,0.5]];portConstraint=eastwest;fontColor=#393C56;" parent="hiwe-CxgwqvSEQismmMj-44" vertex="1">
                    <mxGeometry y="156" width="240" height="26" as="geometry"/>
                </mxCell>
                <mxCell id="hiwe-CxgwqvSEQismmMj-79" value="add_sent_message(MqttPublish)" style="text;strokeColor=none;fillColor=none;align=left;verticalAlign=top;spacingLeft=4;spacingRight=4;overflow=hidden;rotatable=0;points=[[0,0.5],[1,0.5]];portConstraint=eastwest;fontColor=#393C56;" parent="hiwe-CxgwqvSEQismmMj-44" vertex="1">
                    <mxGeometry y="182" width="240" height="26" as="geometry"/>
                </mxCell>
                <mxCell id="hiwe-CxgwqvSEQismmMj-106" value="get_sent_message(int)" style="text;strokeColor=none;fillColor=none;align=left;verticalAlign=top;spacingLeft=4;spacingRight=4;overflow=hidden;rotatable=0;points=[[0,0.5],[1,0.5]];portConstraint=eastwest;fontColor=#393C56;" parent="hiwe-CxgwqvSEQismmMj-44" vertex="1">
                    <mxGeometry y="208" width="240" height="26" as="geometry"/>
                </mxCell>
                <mxCell id="hiwe-CxgwqvSEQismmMj-81" value="add_subscription(MqttSubscription)" style="text;strokeColor=none;fillColor=none;align=left;verticalAlign=top;spacingLeft=4;spacingRight=4;overflow=hidden;rotatable=0;points=[[0,0.5],[1,0.5]];portConstraint=eastwest;fontColor=#393C56;" parent="hiwe-CxgwqvSEQismmMj-44" vertex="1">
                    <mxGeometry y="234" width="240" height="26" as="geometry"/>
                </mxCell>
                <mxCell id="hiwe-CxgwqvSEQismmMj-82" value="remove_subscription(MqttSubscription)" style="text;strokeColor=none;fillColor=none;align=left;verticalAlign=top;spacingLeft=4;spacingRight=4;overflow=hidden;rotatable=0;points=[[0,0.5],[1,0.5]];portConstraint=eastwest;fontColor=#393C56;" parent="hiwe-CxgwqvSEQismmMj-44" vertex="1">
                    <mxGeometry y="260" width="240" height="26" as="geometry"/>
                </mxCell>
                <mxCell id="hiwe-CxgwqvSEQismmMj-80" value="subscriptions(): list(MqttSubscription)" style="text;strokeColor=none;fillColor=none;align=left;verticalAlign=top;spacingLeft=4;spacingRight=4;overflow=hidden;rotatable=0;points=[[0,0.5],[1,0.5]];portConstraint=eastwest;fontColor=#393C56;" parent="hiwe-CxgwqvSEQismmMj-44" vertex="1">
                    <mxGeometry y="286" width="240" height="26" as="geometry"/>
                </mxCell>
                <mxCell id="hiwe-CxgwqvSEQismmMj-100" value="subscription(int, string): MqttSubscription" style="text;strokeColor=none;fillColor=none;align=left;verticalAlign=top;spacingLeft=4;spacingRight=4;overflow=hidden;rotatable=0;points=[[0,0.5],[1,0.5]];portConstraint=eastwest;fontColor=#393C56;" parent="hiwe-CxgwqvSEQismmMj-44" vertex="1">
                    <mxGeometry y="312" width="240" height="26" as="geometry"/>
                </mxCell>
                <mxCell id="hiwe-CxgwqvSEQismmMj-48" value="MqttPublish" style="swimlane;fontStyle=0;childLayout=stackLayout;horizontal=1;startSize=26;fillColor=none;horizontalStack=0;resizeParent=1;resizeParentMax=0;resizeLast=0;collapsible=1;marginBottom=0;shadow=0;glass=0;strokeColor=#E07A5F;fontColor=#393C56;" parent="WIyWlLk6GJQsqaUBKTNV-1" vertex="1">
                    <mxGeometry x="170" y="570" width="150" height="260" as="geometry"/>
                </mxCell>
                <mxCell id="hiwe-CxgwqvSEQismmMj-74" value="+ _log: Logging.Logger" style="text;strokeColor=none;fillColor=none;align=left;verticalAlign=top;spacingLeft=4;spacingRight=4;overflow=hidden;rotatable=0;points=[[0,0.5],[1,0.5]];portConstraint=eastwest;fontColor=#393C56;" parent="hiwe-CxgwqvSEQismmMj-48" vertex="1">
                    <mxGeometry y="26" width="150" height="26" as="geometry"/>
                </mxCell>
                <mxCell id="hiwe-CxgwqvSEQismmMj-49" value="+ mid: int" style="text;strokeColor=none;fillColor=none;align=left;verticalAlign=top;spacingLeft=4;spacingRight=4;overflow=hidden;rotatable=0;points=[[0,0.5],[1,0.5]];portConstraint=eastwest;fontColor=#393C56;" parent="hiwe-CxgwqvSEQismmMj-48" vertex="1">
                    <mxGeometry y="52" width="150" height="26" as="geometry"/>
                </mxCell>
                <mxCell id="hiwe-CxgwqvSEQismmMj-50" value="+ topic: string" style="text;strokeColor=none;fillColor=none;align=left;verticalAlign=top;spacingLeft=4;spacingRight=4;overflow=hidden;rotatable=0;points=[[0,0.5],[1,0.5]];portConstraint=eastwest;fontColor=#393C56;" parent="hiwe-CxgwqvSEQismmMj-48" vertex="1">
                    <mxGeometry y="78" width="150" height="26" as="geometry"/>
                </mxCell>
                <mxCell id="hiwe-CxgwqvSEQismmMj-51" value="+ payload: byte" style="text;strokeColor=none;fillColor=none;align=left;verticalAlign=top;spacingLeft=4;spacingRight=4;overflow=hidden;rotatable=0;points=[[0,0.5],[1,0.5]];portConstraint=eastwest;fontColor=#393C56;" parent="hiwe-CxgwqvSEQismmMj-48" vertex="1">
                    <mxGeometry y="104" width="150" height="26" as="geometry"/>
                </mxCell>
                <mxCell id="hiwe-CxgwqvSEQismmMj-105" value="+ sent_time_ns: int" style="text;strokeColor=none;fillColor=none;align=left;verticalAlign=top;spacingLeft=4;spacingRight=4;overflow=hidden;rotatable=0;points=[[0,0.5],[1,0.5]];portConstraint=eastwest;fontColor=#393C56;" parent="hiwe-CxgwqvSEQismmMj-48" vertex="1">
                    <mxGeometry y="130" width="150" height="26" as="geometry"/>
                </mxCell>
                <mxCell id="hiwe-CxgwqvSEQismmMj-59" value="+ published_time_ns: int" style="text;strokeColor=none;fillColor=none;align=left;verticalAlign=top;spacingLeft=4;spacingRight=4;overflow=hidden;rotatable=0;points=[[0,0.5],[1,0.5]];portConstraint=eastwest;fontColor=#393C56;" parent="hiwe-CxgwqvSEQismmMj-48" vertex="1">
                    <mxGeometry y="156" width="150" height="26" as="geometry"/>
                </mxCell>
                <mxCell id="hiwe-CxgwqvSEQismmMj-60" value="+ is_published: bool" style="text;strokeColor=none;fillColor=none;align=left;verticalAlign=top;spacingLeft=4;spacingRight=4;overflow=hidden;rotatable=0;points=[[0,0.5],[1,0.5]];portConstraint=eastwest;fontColor=#393C56;" parent="hiwe-CxgwqvSEQismmMj-48" vertex="1">
                    <mxGeometry y="182" width="150" height="26" as="geometry"/>
                </mxCell>
                <mxCell id="hiwe-CxgwqvSEQismmMj-108" value="published()" style="text;strokeColor=none;fillColor=none;align=left;verticalAlign=top;spacingLeft=4;spacingRight=4;overflow=hidden;rotatable=0;points=[[0,0.5],[1,0.5]];portConstraint=eastwest;fontColor=#393C56;" parent="hiwe-CxgwqvSEQismmMj-48" vertex="1">
                    <mxGeometry y="208" width="150" height="26" as="geometry"/>
                </mxCell>
                <mxCell id="hiwe-CxgwqvSEQismmMj-61" value="wait_publish(int)" style="text;strokeColor=none;fillColor=none;align=left;verticalAlign=top;spacingLeft=4;spacingRight=4;overflow=hidden;rotatable=0;points=[[0,0.5],[1,0.5]];portConstraint=eastwest;fontColor=#393C56;" parent="hiwe-CxgwqvSEQismmMj-48" vertex="1">
                    <mxGeometry y="234" width="150" height="26" as="geometry"/>
                </mxCell>
                <mxCell id="hiwe-CxgwqvSEQismmMj-84" value="MqttConfig" style="swimlane;fontStyle=0;childLayout=stackLayout;horizontal=1;startSize=26;fillColor=none;horizontalStack=0;resizeParent=1;resizeParentMax=0;resizeLast=0;collapsible=1;marginBottom=0;shadow=0;glass=0;strokeColor=#E07A5F;fontColor=#393C56;" parent="WIyWlLk6GJQsqaUBKTNV-1" vertex="1">
                    <mxGeometry x="670" y="169" width="140" height="416" as="geometry"/>
                </mxCell>
                <mxCell id="hiwe-CxgwqvSEQismmMj-91" value="+ _log: Logging.Logger" style="text;strokeColor=none;fillColor=none;align=left;verticalAlign=top;spacingLeft=4;spacingRight=4;overflow=hidden;rotatable=0;points=[[0,0.5],[1,0.5]];portConstraint=eastwest;fontColor=#393C56;" parent="hiwe-CxgwqvSEQismmMj-84" vertex="1">
                    <mxGeometry y="26" width="140" height="26" as="geometry"/>
                </mxCell>
                <mxCell id="hiwe-CxgwqvSEQismmMj-86" value="+ host: string" style="text;strokeColor=none;fillColor=none;align=left;verticalAlign=top;spacingLeft=4;spacingRight=4;overflow=hidden;rotatable=0;points=[[0,0.5],[1,0.5]];portConstraint=eastwest;fontColor=#393C56;" parent="hiwe-CxgwqvSEQismmMj-84" vertex="1">
                    <mxGeometry y="52" width="140" height="26" as="geometry"/>
                </mxCell>
                <mxCell id="hiwe-CxgwqvSEQismmMj-87" value="+ port: int" style="text;strokeColor=none;fillColor=none;align=left;verticalAlign=top;spacingLeft=4;spacingRight=4;overflow=hidden;rotatable=0;points=[[0,0.5],[1,0.5]];portConstraint=eastwest;fontColor=#393C56;" parent="hiwe-CxgwqvSEQismmMj-84" vertex="1">
                    <mxGeometry y="78" width="140" height="26" as="geometry"/>
                </mxCell>
                <mxCell id="5QhEDFFIZUDoJ0mMbtmI-0" value="+ username: str" style="text;strokeColor=none;fillColor=none;align=left;verticalAlign=top;spacingLeft=4;spacingRight=4;overflow=hidden;rotatable=0;points=[[0,0.5],[1,0.5]];portConstraint=eastwest;fontColor=#393C56;" parent="hiwe-CxgwqvSEQismmMj-84" vertex="1">
                    <mxGeometry y="104" width="140" height="26" as="geometry"/>
                </mxCell>
                <mxCell id="5QhEDFFIZUDoJ0mMbtmI-1" value="+ password: str" style="text;strokeColor=none;fillColor=none;align=left;verticalAlign=top;spacingLeft=4;spacingRight=4;overflow=hidden;rotatable=0;points=[[0,0.5],[1,0.5]];portConstraint=eastwest;fontColor=#393C56;" parent="hiwe-CxgwqvSEQismmMj-84" vertex="1">
                    <mxGeometry y="130" width="140" height="26" as="geometry"/>
                </mxCell>
                <mxCell id="hiwe-CxgwqvSEQismmMj-88" value="+ transport: string" style="text;strokeColor=none;fillColor=none;align=left;verticalAlign=top;spacingLeft=4;spacingRight=4;overflow=hidden;rotatable=0;points=[[0,0.5],[1,0.5]];portConstraint=eastwest;fontColor=#393C56;" parent="hiwe-CxgwqvSEQismmMj-84" vertex="1">
                    <mxGeometry y="156" width="140" height="26" as="geometry"/>
                </mxCell>
                <mxCell id="hiwe-CxgwqvSEQismmMj-89" value="+ protocol: string" style="text;strokeColor=none;fillColor=none;align=left;verticalAlign=top;spacingLeft=4;spacingRight=4;overflow=hidden;rotatable=0;points=[[0,0.5],[1,0.5]];portConstraint=eastwest;fontColor=#393C56;" parent="hiwe-CxgwqvSEQismmMj-84" vertex="1">
                    <mxGeometry y="182" width="140" height="26" as="geometry"/>
                </mxCell>
                <mxCell id="hiwe-CxgwqvSEQismmMj-85" value="+ client_id: string" style="text;strokeColor=none;fillColor=none;align=left;verticalAlign=top;spacingLeft=4;spacingRight=4;overflow=hidden;rotatable=0;points=[[0,0.5],[1,0.5]];portConstraint=eastwest;fontColor=#393C56;" parent="hiwe-CxgwqvSEQismmMj-84" vertex="1">
                    <mxGeometry y="208" width="140" height="26" as="geometry"/>
                </mxCell>
                <mxCell id="hiwe-CxgwqvSEQismmMj-90" value="+ tls: bool" style="text;strokeColor=none;fillColor=none;align=left;verticalAlign=top;spacingLeft=4;spacingRight=4;overflow=hidden;rotatable=0;points=[[0,0.5],[1,0.5]];portConstraint=eastwest;fontColor=#393C56;" parent="hiwe-CxgwqvSEQismmMj-84" vertex="1">
                    <mxGeometry y="234" width="140" height="26" as="geometry"/>
                </mxCell>
                <mxCell id="hiwe-CxgwqvSEQismmMj-19" value="client_id(string): string" style="text;strokeColor=none;fillColor=none;align=left;verticalAlign=top;spacingLeft=4;spacingRight=4;overflow=hidden;rotatable=0;points=[[0,0.5],[1,0.5]];portConstraint=eastwest;fontColor=#393C56;" parent="hiwe-CxgwqvSEQismmMj-84" vertex="1">
                    <mxGeometry y="260" width="140" height="26" as="geometry"/>
                </mxCell>
                <mxCell id="hiwe-CxgwqvSEQismmMj-24" value="tls(bool): bool" style="text;strokeColor=none;fillColor=none;align=left;verticalAlign=top;spacingLeft=4;spacingRight=4;overflow=hidden;rotatable=0;points=[[0,0.5],[1,0.5]];portConstraint=eastwest;fontColor=#393C56;" parent="hiwe-CxgwqvSEQismmMj-84" vertex="1">
                    <mxGeometry y="286" width="140" height="26" as="geometry"/>
                </mxCell>
                <mxCell id="hiwe-CxgwqvSEQismmMj-23" value="protocol(string): string" style="text;strokeColor=none;fillColor=none;align=left;verticalAlign=top;spacingLeft=4;spacingRight=4;overflow=hidden;rotatable=0;points=[[0,0.5],[1,0.5]];portConstraint=eastwest;fontColor=#393C56;" parent="hiwe-CxgwqvSEQismmMj-84" vertex="1">
                    <mxGeometry y="312" width="140" height="26" as="geometry"/>
                </mxCell>
                <mxCell id="hiwe-CxgwqvSEQismmMj-21" value="port(int): int" style="text;strokeColor=none;fillColor=none;align=left;verticalAlign=top;spacingLeft=4;spacingRight=4;overflow=hidden;rotatable=0;points=[[0,0.5],[1,0.5]];portConstraint=eastwest;fontColor=#393C56;" parent="hiwe-CxgwqvSEQismmMj-84" vertex="1">
                    <mxGeometry y="338" width="140" height="26" as="geometry"/>
                </mxCell>
                <mxCell id="hiwe-CxgwqvSEQismmMj-22" value="transport(string): string" style="text;strokeColor=none;fillColor=none;align=left;verticalAlign=top;spacingLeft=4;spacingRight=4;overflow=hidden;rotatable=0;points=[[0,0.5],[1,0.5]];portConstraint=eastwest;fontColor=#393C56;" parent="hiwe-CxgwqvSEQismmMj-84" vertex="1">
                    <mxGeometry y="364" width="140" height="26" as="geometry"/>
                </mxCell>
                <mxCell id="hiwe-CxgwqvSEQismmMj-20" value="host(string): string" style="text;strokeColor=none;fillColor=none;align=left;verticalAlign=top;spacingLeft=4;spacingRight=4;overflow=hidden;rotatable=0;points=[[0,0.5],[1,0.5]];portConstraint=eastwest;fontColor=#393C56;" parent="hiwe-CxgwqvSEQismmMj-84" vertex="1">
                    <mxGeometry y="390" width="140" height="26" as="geometry"/>
                </mxCell>
                <mxCell id="hiwe-CxgwqvSEQismmMj-62" value="MqttMessage" style="swimlane;fontStyle=0;childLayout=stackLayout;horizontal=1;startSize=26;fillColor=none;horizontalStack=0;resizeParent=1;resizeParentMax=0;resizeLast=0;collapsible=1;marginBottom=0;shadow=0;glass=0;strokeColor=#E07A5F;fontColor=#393C56;" parent="WIyWlLk6GJQsqaUBKTNV-1" vertex="1">
                    <mxGeometry x="10" y="880" width="180" height="204" as="geometry"/>
                </mxCell>
                <mxCell id="hiwe-CxgwqvSEQismmMj-76" value="+ _log: Logging.Logger" style="text;strokeColor=none;fillColor=none;align=left;verticalAlign=top;spacingLeft=4;spacingRight=4;overflow=hidden;rotatable=0;points=[[0,0.5],[1,0.5]];portConstraint=eastwest;fontColor=#393C56;" parent="hiwe-CxgwqvSEQismmMj-62" vertex="1">
                    <mxGeometry y="26" width="180" height="22" as="geometry"/>
                </mxCell>
                <mxCell id="hiwe-CxgwqvSEQismmMj-64" value="+ topic: string&#10;" style="text;strokeColor=none;fillColor=none;align=left;verticalAlign=top;spacingLeft=4;spacingRight=4;overflow=hidden;rotatable=0;points=[[0,0.5],[1,0.5]];portConstraint=eastwest;fontColor=#393C56;" parent="hiwe-CxgwqvSEQismmMj-62" vertex="1">
                    <mxGeometry y="48" width="180" height="26" as="geometry"/>
                </mxCell>
                <mxCell id="hiwe-CxgwqvSEQismmMj-110" value="+ qos: int" style="text;strokeColor=none;fillColor=none;align=left;verticalAlign=top;spacingLeft=4;spacingRight=4;overflow=hidden;rotatable=0;points=[[0,0.5],[1,0.5]];portConstraint=eastwest;fontColor=#393C56;" parent="hiwe-CxgwqvSEQismmMj-62" vertex="1">
                    <mxGeometry y="74" width="180" height="26" as="geometry"/>
                </mxCell>
                <mxCell id="hiwe-CxgwqvSEQismmMj-109" value="+ retain: bool" style="text;strokeColor=none;fillColor=none;align=left;verticalAlign=top;spacingLeft=4;spacingRight=4;overflow=hidden;rotatable=0;points=[[0,0.5],[1,0.5]];portConstraint=eastwest;fontColor=#393C56;" parent="hiwe-CxgwqvSEQismmMj-62" vertex="1">
                    <mxGeometry y="100" width="180" height="26" as="geometry"/>
                </mxCell>
                <mxCell id="hiwe-CxgwqvSEQismmMj-65" value="+ payload: byte" style="text;strokeColor=none;fillColor=none;align=left;verticalAlign=top;spacingLeft=4;spacingRight=4;overflow=hidden;rotatable=0;points=[[0,0.5],[1,0.5]];portConstraint=eastwest;fontColor=#393C56;" parent="hiwe-CxgwqvSEQismmMj-62" vertex="1">
                    <mxGeometry y="126" width="180" height="26" as="geometry"/>
                </mxCell>
                <mxCell id="hiwe-CxgwqvSEQismmMj-95" value="+ subscription: MqttSubscription" style="text;strokeColor=none;fillColor=none;align=left;verticalAlign=top;spacingLeft=4;spacingRight=4;overflow=hidden;rotatable=0;points=[[0,0.5],[1,0.5]];portConstraint=eastwest;fontColor=#393C56;" parent="hiwe-CxgwqvSEQismmMj-62" vertex="1">
                    <mxGeometry y="152" width="180" height="26" as="geometry"/>
                </mxCell>
                <mxCell id="hiwe-CxgwqvSEQismmMj-66" value="+ receive_time_ns: int" style="text;strokeColor=none;fillColor=none;align=left;verticalAlign=top;spacingLeft=4;spacingRight=4;overflow=hidden;rotatable=0;points=[[0,0.5],[1,0.5]];portConstraint=eastwest;fontColor=#393C56;" parent="hiwe-CxgwqvSEQismmMj-62" vertex="1">
                    <mxGeometry y="178" width="180" height="26" as="geometry"/>
                </mxCell>
                <mxCell id="5QhEDFFIZUDoJ0mMbtmI-2" value="" style="endArrow=none;html=1;edgeStyle=orthogonalEdgeStyle;exitX=1;exitY=0.5;exitDx=0;exitDy=0;entryX=0.5;entryY=0;entryDx=0;entryDy=0;labelBackgroundColor=#F4F1DE;strokeColor=#E07A5F;fontColor=#393C56;" parent="WIyWlLk6GJQsqaUBKTNV-1" source="hiwe-CxgwqvSEQismmMj-93" target="hiwe-CxgwqvSEQismmMj-84" edge="1">
                    <mxGeometry relative="1" as="geometry">
                        <mxPoint x="770" y="380" as="sourcePoint"/>
                        <mxPoint x="930" y="380" as="targetPoint"/>
                    </mxGeometry>
                </mxCell>
                <mxCell id="5QhEDFFIZUDoJ0mMbtmI-3" value="parent" style="edgeLabel;resizable=0;html=1;align=left;verticalAlign=bottom;labelBackgroundColor=#F4F1DE;fontColor=#393C56;" parent="5QhEDFFIZUDoJ0mMbtmI-2" connectable="0" vertex="1">
                    <mxGeometry x="-1" relative="1" as="geometry"/>
                </mxCell>
                <mxCell id="5QhEDFFIZUDoJ0mMbtmI-4" value="child" style="edgeLabel;resizable=0;html=1;align=right;verticalAlign=bottom;labelBackgroundColor=#F4F1DE;fontColor=#393C56;" parent="5QhEDFFIZUDoJ0mMbtmI-2" connectable="0" vertex="1">
                    <mxGeometry x="1" relative="1" as="geometry"/>
                </mxCell>
                <mxCell id="5QhEDFFIZUDoJ0mMbtmI-5" value="" style="endArrow=none;html=1;edgeStyle=orthogonalEdgeStyle;entryX=0.5;entryY=0;entryDx=0;entryDy=0;labelBackgroundColor=#F4F1DE;strokeColor=#E07A5F;fontColor=#393C56;" parent="WIyWlLk6GJQsqaUBKTNV-1" source="hiwe-CxgwqvSEQismmMj-33" target="hiwe-CxgwqvSEQismmMj-44" edge="1">
                    <mxGeometry relative="1" as="geometry">
                        <mxPoint x="580" y="20" as="sourcePoint"/>
                        <mxPoint x="740" y="20" as="targetPoint"/>
                    </mxGeometry>
                </mxCell>
                <mxCell id="5QhEDFFIZUDoJ0mMbtmI-6" value="parent" style="edgeLabel;resizable=0;html=1;align=left;verticalAlign=bottom;labelBackgroundColor=#F4F1DE;fontColor=#393C56;" parent="5QhEDFFIZUDoJ0mMbtmI-5" connectable="0" vertex="1">
                    <mxGeometry x="-1" relative="1" as="geometry"/>
                </mxCell>
                <mxCell id="5QhEDFFIZUDoJ0mMbtmI-7" value="child" style="edgeLabel;resizable=0;html=1;align=right;verticalAlign=bottom;labelBackgroundColor=#F4F1DE;fontColor=#393C56;" parent="5QhEDFFIZUDoJ0mMbtmI-5" connectable="0" vertex="1">
                    <mxGeometry x="1" relative="1" as="geometry"/>
                </mxCell>
                <mxCell id="5QhEDFFIZUDoJ0mMbtmI-8" value="" style="endArrow=none;html=1;edgeStyle=orthogonalEdgeStyle;entryX=0.5;entryY=0;entryDx=0;entryDy=0;labelBackgroundColor=#F4F1DE;strokeColor=#E07A5F;fontColor=#393C56;" parent="WIyWlLk6GJQsqaUBKTNV-1" source="hiwe-CxgwqvSEQismmMj-30" target="hiwe-CxgwqvSEQismmMj-48" edge="1">
                    <mxGeometry relative="1" as="geometry">
                        <mxPoint x="340" y="310" as="sourcePoint"/>
                        <mxPoint x="500" y="310" as="targetPoint"/>
                        <Array as="points">
                            <mxPoint x="300" y="319"/>
                            <mxPoint x="300" y="550"/>
                            <mxPoint x="245" y="550"/>
                        </Array>
                    </mxGeometry>
                </mxCell>
                <mxCell id="5QhEDFFIZUDoJ0mMbtmI-9" value="parent" style="edgeLabel;resizable=0;html=1;align=left;verticalAlign=bottom;labelBackgroundColor=#F4F1DE;fontColor=#393C56;" parent="5QhEDFFIZUDoJ0mMbtmI-8" connectable="0" vertex="1">
                    <mxGeometry x="-1" relative="1" as="geometry"/>
                </mxCell>
                <mxCell id="5QhEDFFIZUDoJ0mMbtmI-10" value="child" style="edgeLabel;resizable=0;html=1;align=right;verticalAlign=bottom;labelBackgroundColor=#F4F1DE;fontColor=#393C56;" parent="5QhEDFFIZUDoJ0mMbtmI-8" connectable="0" vertex="1">
                    <mxGeometry x="1" relative="1" as="geometry"/>
                </mxCell>
                <mxCell id="5QhEDFFIZUDoJ0mMbtmI-11" value="" style="endArrow=none;html=1;edgeStyle=orthogonalEdgeStyle;entryX=0.25;entryY=0;entryDx=0;entryDy=0;labelBackgroundColor=#F4F1DE;strokeColor=#E07A5F;fontColor=#393C56;" parent="WIyWlLk6GJQsqaUBKTNV-1" source="hiwe-CxgwqvSEQismmMj-39" target="hiwe-CxgwqvSEQismmMj-62" edge="1">
                    <mxGeometry relative="1" as="geometry">
                        <mxPoint x="190" y="510" as="sourcePoint"/>
                        <mxPoint x="350" y="510" as="targetPoint"/>
                    </mxGeometry>
                </mxCell>
                <mxCell id="5QhEDFFIZUDoJ0mMbtmI-12" value="parent" style="edgeLabel;resizable=0;html=1;align=left;verticalAlign=bottom;labelBackgroundColor=#F4F1DE;fontColor=#393C56;" parent="5QhEDFFIZUDoJ0mMbtmI-11" connectable="0" vertex="1">
                    <mxGeometry x="-1" relative="1" as="geometry">
                        <mxPoint x="-10" y="43" as="offset"/>
                    </mxGeometry>
                </mxCell>
                <mxCell id="5QhEDFFIZUDoJ0mMbtmI-13" value="child" style="edgeLabel;resizable=0;html=1;align=right;verticalAlign=bottom;labelBackgroundColor=#F4F1DE;fontColor=#393C56;" parent="5QhEDFFIZUDoJ0mMbtmI-11" connectable="0" vertex="1">
                    <mxGeometry x="1" relative="1" as="geometry"/>
                </mxCell>
                <mxCell id="5QhEDFFIZUDoJ0mMbtmI-14" value="" style="endArrow=none;html=1;edgeStyle=orthogonalEdgeStyle;entryX=0.75;entryY=0;entryDx=0;entryDy=0;labelBackgroundColor=#F4F1DE;strokeColor=#E07A5F;fontColor=#393C56;" parent="WIyWlLk6GJQsqaUBKTNV-1" source="hiwe-CxgwqvSEQismmMj-83" target="hiwe-CxgwqvSEQismmMj-62" edge="1">
                    <mxGeometry relative="1" as="geometry">
                        <mxPoint x="150" y="550" as="sourcePoint"/>
                        <mxPoint x="310" y="550" as="targetPoint"/>
                    </mxGeometry>
                </mxCell>
                <mxCell id="5QhEDFFIZUDoJ0mMbtmI-15" value="parent" style="edgeLabel;resizable=0;html=1;align=left;verticalAlign=bottom;labelBackgroundColor=#F4F1DE;fontColor=#393C56;" parent="5QhEDFFIZUDoJ0mMbtmI-14" connectable="0" vertex="1">
                    <mxGeometry x="-1" relative="1" as="geometry">
                        <mxPoint x="-40" as="offset"/>
                    </mxGeometry>
                </mxCell>
                <mxCell id="5QhEDFFIZUDoJ0mMbtmI-16" value="child" style="edgeLabel;resizable=0;html=1;align=right;verticalAlign=bottom;labelBackgroundColor=#F4F1DE;fontColor=#393C56;" parent="5QhEDFFIZUDoJ0mMbtmI-14" connectable="0" vertex="1">
                    <mxGeometry x="1" relative="1" as="geometry"/>
                </mxCell>
                <mxCell id="5QhEDFFIZUDoJ0mMbtmI-17" value="" style="endArrow=none;html=1;edgeStyle=orthogonalEdgeStyle;entryX=0.5;entryY=0;entryDx=0;entryDy=0;labelBackgroundColor=#F4F1DE;strokeColor=#E07A5F;fontColor=#393C56;" parent="WIyWlLk6GJQsqaUBKTNV-1" source="hiwe-CxgwqvSEQismmMj-27" target="hiwe-CxgwqvSEQismmMj-40" edge="1">
                    <mxGeometry relative="1" as="geometry">
                        <mxPoint x="430" y="160" as="sourcePoint"/>
                        <mxPoint x="590" y="160" as="targetPoint"/>
                        <Array as="points">
                            <mxPoint x="340" y="215"/>
                            <mxPoint x="340" y="560"/>
                            <mxPoint x="414" y="560"/>
                        </Array>
                    </mxGeometry>
                </mxCell>
                <mxCell id="5QhEDFFIZUDoJ0mMbtmI-18" value="parent" style="edgeLabel;resizable=0;html=1;align=left;verticalAlign=bottom;labelBackgroundColor=#F4F1DE;fontColor=#393C56;" parent="5QhEDFFIZUDoJ0mMbtmI-17" connectable="0" vertex="1">
                    <mxGeometry x="-1" relative="1" as="geometry"/>
                </mxCell>
                <mxCell id="5QhEDFFIZUDoJ0mMbtmI-19" value="child" style="edgeLabel;resizable=0;html=1;align=right;verticalAlign=bottom;labelBackgroundColor=#F4F1DE;fontColor=#393C56;" parent="5QhEDFFIZUDoJ0mMbtmI-17" connectable="0" vertex="1">
                    <mxGeometry x="1" relative="1" as="geometry"/>
                </mxCell>
            </root>
        </mxGraphModel>
    </diagram>
</mxfile>